<mxfile host="app.diagrams.net" modified="2024-07-14T18:02:58.281Z" agent="Mozilla/5.0 (Windows NT 10.0; Win64; x64) AppleWebKit/537.36 (KHTML, like Gecko) Chrome/126.0.0.0 Safari/537.36 Edg/126.0.0.0" etag="JsETTwxgX7WiQ8naVmpW" version="24.6.5" type="github">
  <diagram id="C5RBs43oDa-KdzZeNtuy" name="Page-1">
    <mxGraphModel dx="2171" dy="569" grid="1" gridSize="10" guides="1" tooltips="1" connect="1" arrows="1" fold="1" page="1" pageScale="1" pageWidth="1169" pageHeight="827" math="0" shadow="0">
      <root>
        <mxCell id="WIyWlLk6GJQsqaUBKTNV-0" />
        <mxCell id="WIyWlLk6GJQsqaUBKTNV-1" parent="WIyWlLk6GJQsqaUBKTNV-0" />
        <mxCell id="Jqhit5c_1ASvDGuujrBs-23" style="edgeStyle=orthogonalEdgeStyle;rounded=0;orthogonalLoop=1;jettySize=auto;html=1;exitX=0.5;exitY=1;exitDx=0;exitDy=0;entryX=0.5;entryY=0;entryDx=0;entryDy=0;" edge="1" parent="WIyWlLk6GJQsqaUBKTNV-1" source="WIyWlLk6GJQsqaUBKTNV-3" target="Jqhit5c_1ASvDGuujrBs-0">
          <mxGeometry relative="1" as="geometry" />
        </mxCell>
        <mxCell id="WIyWlLk6GJQsqaUBKTNV-3" value="Start" style="rounded=1;whiteSpace=wrap;html=1;fontSize=12;glass=0;strokeWidth=1;shadow=0;fillColor=#03b0ef;strokeColor=#6c8ebf;" parent="WIyWlLk6GJQsqaUBKTNV-1" vertex="1">
          <mxGeometry x="360" y="10" width="120" height="40" as="geometry" />
        </mxCell>
        <mxCell id="WIyWlLk6GJQsqaUBKTNV-11" value="End" style="rounded=1;whiteSpace=wrap;html=1;fontSize=12;glass=0;strokeWidth=1;shadow=0;fillColor=#03b0ef;" parent="WIyWlLk6GJQsqaUBKTNV-1" vertex="1">
          <mxGeometry x="360" y="530" width="120" height="40" as="geometry" />
        </mxCell>
        <mxCell id="Jqhit5c_1ASvDGuujrBs-24" style="edgeStyle=orthogonalEdgeStyle;rounded=0;orthogonalLoop=1;jettySize=auto;html=1;exitX=0;exitY=0.25;exitDx=0;exitDy=0;entryX=0.5;entryY=0;entryDx=0;entryDy=0;" edge="1" parent="WIyWlLk6GJQsqaUBKTNV-1" source="Jqhit5c_1ASvDGuujrBs-0" target="Jqhit5c_1ASvDGuujrBs-1">
          <mxGeometry relative="1" as="geometry" />
        </mxCell>
        <mxCell id="Jqhit5c_1ASvDGuujrBs-27" style="edgeStyle=orthogonalEdgeStyle;rounded=0;orthogonalLoop=1;jettySize=auto;html=1;entryX=0.5;entryY=0;entryDx=0;entryDy=0;" edge="1" parent="WIyWlLk6GJQsqaUBKTNV-1" source="Jqhit5c_1ASvDGuujrBs-0" target="Jqhit5c_1ASvDGuujrBs-4">
          <mxGeometry relative="1" as="geometry" />
        </mxCell>
        <mxCell id="Jqhit5c_1ASvDGuujrBs-0" value="User access site" style="rounded=0;whiteSpace=wrap;html=1;fillColor=#d5e8d4;strokeColor=#82b366;" vertex="1" parent="WIyWlLk6GJQsqaUBKTNV-1">
          <mxGeometry x="360" y="70" width="120" height="30" as="geometry" />
        </mxCell>
        <mxCell id="Jqhit5c_1ASvDGuujrBs-21" style="edgeStyle=orthogonalEdgeStyle;rounded=0;orthogonalLoop=1;jettySize=auto;html=1;exitX=0.5;exitY=1;exitDx=0;exitDy=0;" edge="1" parent="WIyWlLk6GJQsqaUBKTNV-1" source="Jqhit5c_1ASvDGuujrBs-1" target="Jqhit5c_1ASvDGuujrBs-5">
          <mxGeometry relative="1" as="geometry" />
        </mxCell>
        <mxCell id="Jqhit5c_1ASvDGuujrBs-1" value="Scans the project" style="rounded=1;whiteSpace=wrap;html=1;" vertex="1" parent="WIyWlLk6GJQsqaUBKTNV-1">
          <mxGeometry x="40" y="140" width="120" height="60" as="geometry" />
        </mxCell>
        <mxCell id="Jqhit5c_1ASvDGuujrBs-29" style="edgeStyle=orthogonalEdgeStyle;rounded=0;orthogonalLoop=1;jettySize=auto;html=1;exitX=0.5;exitY=1;exitDx=0;exitDy=0;entryX=0.5;entryY=0;entryDx=0;entryDy=0;" edge="1" parent="WIyWlLk6GJQsqaUBKTNV-1" source="Jqhit5c_1ASvDGuujrBs-2" target="Jqhit5c_1ASvDGuujrBs-28">
          <mxGeometry relative="1" as="geometry" />
        </mxCell>
        <mxCell id="Jqhit5c_1ASvDGuujrBs-2" value="Read dataset" style="rounded=1;whiteSpace=wrap;html=1;" vertex="1" parent="WIyWlLk6GJQsqaUBKTNV-1">
          <mxGeometry x="250" y="140" width="120" height="60" as="geometry" />
        </mxCell>
        <mxCell id="Jqhit5c_1ASvDGuujrBs-3" value="Add data to dataset" style="rounded=1;whiteSpace=wrap;html=1;" vertex="1" parent="WIyWlLk6GJQsqaUBKTNV-1">
          <mxGeometry x="450" y="140" width="120" height="60" as="geometry" />
        </mxCell>
        <mxCell id="Jqhit5c_1ASvDGuujrBs-33" style="edgeStyle=orthogonalEdgeStyle;rounded=0;orthogonalLoop=1;jettySize=auto;html=1;entryX=0.5;entryY=0;entryDx=0;entryDy=0;" edge="1" parent="WIyWlLk6GJQsqaUBKTNV-1" source="Jqhit5c_1ASvDGuujrBs-4" target="Jqhit5c_1ASvDGuujrBs-32">
          <mxGeometry relative="1" as="geometry" />
        </mxCell>
        <mxCell id="Jqhit5c_1ASvDGuujrBs-4" value="Read FAQ&#39;s" style="rounded=1;whiteSpace=wrap;html=1;fillColor=#ffe6cc;strokeColor=#d79b00;" vertex="1" parent="WIyWlLk6GJQsqaUBKTNV-1">
          <mxGeometry x="670" y="140" width="120" height="60" as="geometry" />
        </mxCell>
        <mxCell id="Jqhit5c_1ASvDGuujrBs-5" value="Upload .zio/pom.xml/build.gradle" style="rounded=1;whiteSpace=wrap;html=1;" vertex="1" parent="WIyWlLk6GJQsqaUBKTNV-1">
          <mxGeometry x="20" y="240" width="160" height="60" as="geometry" />
        </mxCell>
        <mxCell id="Jqhit5c_1ASvDGuujrBs-19" style="edgeStyle=orthogonalEdgeStyle;rounded=0;orthogonalLoop=1;jettySize=auto;html=1;exitX=0.5;exitY=1;exitDx=0;exitDy=0;entryX=0.5;entryY=0;entryDx=0;entryDy=0;" edge="1" parent="WIyWlLk6GJQsqaUBKTNV-1" source="Jqhit5c_1ASvDGuujrBs-7" target="Jqhit5c_1ASvDGuujrBs-8">
          <mxGeometry relative="1" as="geometry" />
        </mxCell>
        <mxCell id="Jqhit5c_1ASvDGuujrBs-7" value="Analyzes the project in 3 levels" style="rounded=1;whiteSpace=wrap;html=1;" vertex="1" parent="WIyWlLk6GJQsqaUBKTNV-1">
          <mxGeometry x="50" y="330" width="120" height="60" as="geometry" />
        </mxCell>
        <mxCell id="Jqhit5c_1ASvDGuujrBs-16" style="edgeStyle=orthogonalEdgeStyle;rounded=0;orthogonalLoop=1;jettySize=auto;html=1;exitX=1;exitY=0.5;exitDx=0;exitDy=0;entryX=0;entryY=0.5;entryDx=0;entryDy=0;" edge="1" parent="WIyWlLk6GJQsqaUBKTNV-1" source="Jqhit5c_1ASvDGuujrBs-8" target="Jqhit5c_1ASvDGuujrBs-9">
          <mxGeometry relative="1" as="geometry" />
        </mxCell>
        <mxCell id="Jqhit5c_1ASvDGuujrBs-17" style="edgeStyle=orthogonalEdgeStyle;rounded=0;orthogonalLoop=1;jettySize=auto;html=1;exitX=0;exitY=0.5;exitDx=0;exitDy=0;entryX=1;entryY=0.5;entryDx=0;entryDy=0;" edge="1" parent="WIyWlLk6GJQsqaUBKTNV-1" source="Jqhit5c_1ASvDGuujrBs-8" target="Jqhit5c_1ASvDGuujrBs-11">
          <mxGeometry relative="1" as="geometry" />
        </mxCell>
        <mxCell id="Jqhit5c_1ASvDGuujrBs-18" style="edgeStyle=orthogonalEdgeStyle;rounded=0;orthogonalLoop=1;jettySize=auto;html=1;exitX=0.5;exitY=1;exitDx=0;exitDy=0;entryX=0.5;entryY=0;entryDx=0;entryDy=0;" edge="1" parent="WIyWlLk6GJQsqaUBKTNV-1" source="Jqhit5c_1ASvDGuujrBs-8" target="Jqhit5c_1ASvDGuujrBs-10">
          <mxGeometry relative="1" as="geometry" />
        </mxCell>
        <mxCell id="Jqhit5c_1ASvDGuujrBs-8" value="Save report" style="rhombus;whiteSpace=wrap;html=1;fillColor=#ffe6cc;strokeColor=#d79b00;" vertex="1" parent="WIyWlLk6GJQsqaUBKTNV-1">
          <mxGeometry x="70" y="410" width="80" height="80" as="geometry" />
        </mxCell>
        <mxCell id="Jqhit5c_1ASvDGuujrBs-9" value="Excel" style="rounded=1;whiteSpace=wrap;html=1;" vertex="1" parent="WIyWlLk6GJQsqaUBKTNV-1">
          <mxGeometry x="190" y="435" width="60" height="30" as="geometry" />
        </mxCell>
        <mxCell id="Jqhit5c_1ASvDGuujrBs-22" style="edgeStyle=orthogonalEdgeStyle;rounded=0;orthogonalLoop=1;jettySize=auto;html=1;exitX=0.5;exitY=1;exitDx=0;exitDy=0;" edge="1" parent="WIyWlLk6GJQsqaUBKTNV-1" source="Jqhit5c_1ASvDGuujrBs-10" target="WIyWlLk6GJQsqaUBKTNV-11">
          <mxGeometry relative="1" as="geometry" />
        </mxCell>
        <mxCell id="Jqhit5c_1ASvDGuujrBs-10" value="PDF" style="rounded=1;whiteSpace=wrap;html=1;" vertex="1" parent="WIyWlLk6GJQsqaUBKTNV-1">
          <mxGeometry x="80" y="500" width="60" height="30" as="geometry" />
        </mxCell>
        <mxCell id="Jqhit5c_1ASvDGuujrBs-11" value="Website cookies" style="rounded=1;whiteSpace=wrap;html=1;" vertex="1" parent="WIyWlLk6GJQsqaUBKTNV-1">
          <mxGeometry x="-70" y="432.5" width="100" height="35" as="geometry" />
        </mxCell>
        <mxCell id="Jqhit5c_1ASvDGuujrBs-20" style="edgeStyle=orthogonalEdgeStyle;rounded=0;orthogonalLoop=1;jettySize=auto;html=1;exitX=0.5;exitY=1;exitDx=0;exitDy=0;entryX=0.428;entryY=-0.013;entryDx=0;entryDy=0;entryPerimeter=0;" edge="1" parent="WIyWlLk6GJQsqaUBKTNV-1" source="Jqhit5c_1ASvDGuujrBs-5" target="Jqhit5c_1ASvDGuujrBs-7">
          <mxGeometry relative="1" as="geometry" />
        </mxCell>
        <mxCell id="Jqhit5c_1ASvDGuujrBs-25" style="edgeStyle=orthogonalEdgeStyle;rounded=0;orthogonalLoop=1;jettySize=auto;html=1;exitX=0.25;exitY=1;exitDx=0;exitDy=0;entryX=0.368;entryY=0.033;entryDx=0;entryDy=0;entryPerimeter=0;" edge="1" parent="WIyWlLk6GJQsqaUBKTNV-1" source="Jqhit5c_1ASvDGuujrBs-0" target="Jqhit5c_1ASvDGuujrBs-2">
          <mxGeometry relative="1" as="geometry" />
        </mxCell>
        <mxCell id="Jqhit5c_1ASvDGuujrBs-26" style="edgeStyle=orthogonalEdgeStyle;rounded=0;orthogonalLoop=1;jettySize=auto;html=1;exitX=0.75;exitY=1;exitDx=0;exitDy=0;entryX=0.422;entryY=0.047;entryDx=0;entryDy=0;entryPerimeter=0;" edge="1" parent="WIyWlLk6GJQsqaUBKTNV-1" source="Jqhit5c_1ASvDGuujrBs-0" target="Jqhit5c_1ASvDGuujrBs-3">
          <mxGeometry relative="1" as="geometry" />
        </mxCell>
        <mxCell id="Jqhit5c_1ASvDGuujrBs-28" value="Read deprecated API&#39;s/Packages/Methods etc in tabular view" style="rounded=1;whiteSpace=wrap;html=1;" vertex="1" parent="WIyWlLk6GJQsqaUBKTNV-1">
          <mxGeometry x="225" y="240" width="170" height="90" as="geometry" />
        </mxCell>
        <mxCell id="Jqhit5c_1ASvDGuujrBs-40" style="edgeStyle=orthogonalEdgeStyle;rounded=0;orthogonalLoop=1;jettySize=auto;html=1;entryX=0.5;entryY=0;entryDx=0;entryDy=0;" edge="1" parent="WIyWlLk6GJQsqaUBKTNV-1" source="Jqhit5c_1ASvDGuujrBs-30" target="Jqhit5c_1ASvDGuujrBs-39">
          <mxGeometry relative="1" as="geometry" />
        </mxCell>
        <mxCell id="Jqhit5c_1ASvDGuujrBs-30" value="Add internal API&#39;s, methods etc that were deprecated" style="rounded=1;whiteSpace=wrap;html=1;" vertex="1" parent="WIyWlLk6GJQsqaUBKTNV-1">
          <mxGeometry x="450" y="240" width="140" height="85" as="geometry" />
        </mxCell>
        <mxCell id="Jqhit5c_1ASvDGuujrBs-31" style="edgeStyle=orthogonalEdgeStyle;rounded=0;orthogonalLoop=1;jettySize=auto;html=1;entryX=0.424;entryY=-0.005;entryDx=0;entryDy=0;entryPerimeter=0;" edge="1" parent="WIyWlLk6GJQsqaUBKTNV-1" source="Jqhit5c_1ASvDGuujrBs-3" target="Jqhit5c_1ASvDGuujrBs-30">
          <mxGeometry relative="1" as="geometry" />
        </mxCell>
        <mxCell id="Jqhit5c_1ASvDGuujrBs-42" style="edgeStyle=orthogonalEdgeStyle;rounded=0;orthogonalLoop=1;jettySize=auto;html=1;entryX=1;entryY=0.5;entryDx=0;entryDy=0;" edge="1" parent="WIyWlLk6GJQsqaUBKTNV-1" source="Jqhit5c_1ASvDGuujrBs-32" target="WIyWlLk6GJQsqaUBKTNV-11">
          <mxGeometry relative="1" as="geometry">
            <Array as="points">
              <mxPoint x="610" y="360" />
              <mxPoint x="610" y="550" />
            </Array>
          </mxGeometry>
        </mxCell>
        <mxCell id="Jqhit5c_1ASvDGuujrBs-32" value="Read the FAQ&#39;s mentioned in the site" style="rounded=1;whiteSpace=wrap;html=1;" vertex="1" parent="WIyWlLk6GJQsqaUBKTNV-1">
          <mxGeometry x="665" y="320" width="130" height="80" as="geometry" />
        </mxCell>
        <mxCell id="Jqhit5c_1ASvDGuujrBs-38" style="edgeStyle=orthogonalEdgeStyle;rounded=0;orthogonalLoop=1;jettySize=auto;html=1;exitX=0.5;exitY=1;exitDx=0;exitDy=0;entryX=0.085;entryY=0.02;entryDx=0;entryDy=0;entryPerimeter=0;" edge="1" parent="WIyWlLk6GJQsqaUBKTNV-1" source="Jqhit5c_1ASvDGuujrBs-28" target="WIyWlLk6GJQsqaUBKTNV-11">
          <mxGeometry relative="1" as="geometry" />
        </mxCell>
        <mxCell id="Jqhit5c_1ASvDGuujrBs-39" value="Saves the data in Database" style="rounded=1;whiteSpace=wrap;html=1;" vertex="1" parent="WIyWlLk6GJQsqaUBKTNV-1">
          <mxGeometry x="460" y="372.5" width="120" height="60" as="geometry" />
        </mxCell>
        <mxCell id="Jqhit5c_1ASvDGuujrBs-41" style="edgeStyle=orthogonalEdgeStyle;rounded=0;orthogonalLoop=1;jettySize=auto;html=1;entryX=0.667;entryY=0;entryDx=0;entryDy=0;entryPerimeter=0;" edge="1" parent="WIyWlLk6GJQsqaUBKTNV-1" source="Jqhit5c_1ASvDGuujrBs-39" target="WIyWlLk6GJQsqaUBKTNV-11">
          <mxGeometry relative="1" as="geometry" />
        </mxCell>
      </root>
    </mxGraphModel>
  </diagram>
</mxfile>
